<?xml version="1.0" encoding="utf-8"?><svg width="auto" height="5170" style="overflow:visible " version="1.1" xmlns="http://www.w3.org/2000/svg"><rect x="20" y="20" width="200" height="40" style="fill:white;stroke:black;stroke-width:1" /><text x="30" y="30" font-size="10" style="fill:blue">rutas</text><rect x="240" y="20" width="200" height="40" style="fill:white;stroke:black;stroke-width:1" /><text x="250" y="30" font-size="10" style="fill:blue">ruta</text><path d="M220 40 C240 40 220 40 240 40" style="fill:transparent;stroke:black" /><rect x="460" y="20" width="200" height="40" style="fill:white;stroke:black;stroke-width:1" /><text x="470" y="30" font-size="10" style="fill:blue">nombre</text><path d="M440 40 C460 40 440 40 460 40" style="fill:transparent;stroke:black" /><rect x="526" y="20" width="137" height="40" style="fill:green;stroke:black;stroke-width:1" /><text x="536" y="30" font-size="8" style="fill:white">Ulsanbawi Rock</text><rect x="460" y="70" width="200" height="40" style="fill:white;stroke:black;stroke-width:1" /><text x="470" y="80" font-size="10" style="fill:blue">tipo</text><path d="M440 40 C460 40 440 90 460 90" style="fill:transparent;stroke:black" /><rect x="526" y="70" width="137" height="40" style="fill:green;stroke:black;stroke-width:1" /><text x="536" y="80" font-size="8" style="fill:white">Senderismo</text><rect x="460" y="120" width="200" height="40" style="fill:white;stroke:black;stroke-width:1" /><text x="470" y="130" font-size="10" style="fill:blue">medioTransporte</text><path d="M440 40 C460 40 440 140 460 140" style="fill:transparent;stroke:black" /><rect x="526" y="120" width="137" height="40" style="fill:green;stroke:black;stroke-width:1" /><text x="536" y="130" font-size="8" style="fill:white">A pie</text><rect x="460" y="170" width="200" height="40" style="fill:white;stroke:black;stroke-width:1" /><text x="470" y="180" font-size="10" style="fill:blue">duracion</text><path d="M440 40 C460 40 440 190 460 190" style="fill:transparent;stroke:black" /><rect x="526" y="170" width="137" height="40" style="fill:green;stroke:black;stroke-width:1" /><text x="536" y="180" font-size="8" style="fill:white">3,5 horas</text><rect x="460" y="220" width="200" height="40" style="fill:white;stroke:black;stroke-width:1" /><text x="470" y="230" font-size="10" style="fill:blue">agencia</text><path d="M440 40 C460 40 440 240 460 240" style="fill:transparent;stroke:black" /><rect x="526" y="220" width="137" height="40" style="fill:green;stroke:black;stroke-width:1" /><text x="536" y="230" font-size="8" style="fill:white">Sin agencia</text><rect x="460" y="270" width="200" height="40" style="fill:white;stroke:black;stroke-width:1" /><text x="470" y="280" font-size="10" style="fill:blue">descripcion</text><path d="M440 40 C460 40 440 290 460 290" style="fill:transparent;stroke:black" /><rect x="526" y="270" width="137" height="40" style="fill:green;stroke:black;stroke-width:1" /><text x="536" y="280" font-size="8" style="fill:white">Caminata de 3,8km, unas tres horas y media ida y vuelta, con un ascenso a la roca Ulsanbawi para finalizar, desde la que vamos a tener unas vistas increíbles.</text><rect x="460" y="320" width="200" height="40" style="fill:white;stroke:black;stroke-width:1" /><text x="470" y="330" font-size="10" style="fill:blue">personasAdecuadas</text><path d="M440 40 C460 40 440 340 460 340" style="fill:transparent;stroke:black" /><rect x="526" y="320" width="137" height="40" style="fill:green;stroke:black;stroke-width:1" /><text x="536" y="330" font-size="8" style="fill:white">Personas en 
            buena forma física</text><rect x="460" y="370" width="200" height="40" style="fill:white;stroke:black;stroke-width:1" /><text x="470" y="380" font-size="10" style="fill:blue">lugarInicio</text><path d="M440 40 C460 40 440 390 460 390" style="fill:transparent;stroke:black" /><rect x="526" y="370" width="137" height="40" style="fill:green;stroke:black;stroke-width:1" /><text x="536" y="380" font-size="8" style="fill:white">Seoraksan National Park</text><rect x="460" y="420" width="200" height="40" style="fill:white;stroke:black;stroke-width:1" /><text x="470" y="430" font-size="10" style="fill:blue">direccionInicio</text><path d="M440 40 C460 40 440 440 460 440" style="fill:transparent;stroke:black" /><rect x="526" y="420" width="137" height="40" style="fill:green;stroke:black;stroke-width:1" /><text x="536" y="430" font-size="8" style="fill:white">Seorak-dong, Sokcho-si, Gangwon-do, Corea del Sur</text><rect x="460" y="470" width="200" height="40" style="fill:white;stroke:black;stroke-width:1" /><text x="470" y="480" font-size="10" style="fill:blue">coordenadas</text><path d="M440 40 C460 40 440 490 460 490" style="fill:transparent;stroke:black" /><rect x="526" y="470" width="137" height="40" style="fill:green;stroke:black;stroke-width:1" /><text x="536" y="480" font-size="8" style="fill:white">38.19327621589622, 128.47579029604157, 873</text><rect x="460" y="520" width="200" height="40" style="fill:white;stroke:black;stroke-width:1" /><text x="470" y="530" font-size="10" style="fill:blue">referencias</text><path d="M440 40 C460 40 440 540 460 540" style="fill:transparent;stroke:black" /><rect x="526" y="520" width="137" height="40" style="fill:green;stroke:black;stroke-width:1" /><text x="536" y="530" font-size="8" style="fill:white">https://www.tripadvisor.es/Attraction_Review-g317129-d3808309-Reviews-Ulsanbawi_Rock-Sokcho_Gangwon_do.html</text><rect x="460" y="570" width="200" height="40" style="fill:white;stroke:black;stroke-width:1" /><text x="470" y="580" font-size="10" style="fill:blue">referencias</text><path d="M440 40 C460 40 440 590 460 590" style="fill:transparent;stroke:black" /><rect x="526" y="570" width="137" height="40" style="fill:green;stroke:black;stroke-width:1" /><text x="536" y="580" font-size="8" style="fill:white">https://en.wikipedia.org/wiki/Ulsanbawi</text><rect x="460" y="620" width="200" height="40" style="fill:white;stroke:black;stroke-width:1" /><text x="470" y="630" font-size="10" style="fill:blue">referencias</text><path d="M440 40 C460 40 440 640 460 640" style="fill:transparent;stroke:black" /><rect x="526" y="620" width="137" height="40" style="fill:green;stroke:black;stroke-width:1" /><text x="536" y="630" font-size="8" style="fill:white">https://es.wikiloc.com/rutas-senderismo/seoraksan-national-park-dir-ulsanbawi-rock-62983271</text><rect x="460" y="670" width="200" height="40" style="fill:white;stroke:black;stroke-width:1" /><text x="470" y="680" font-size="10" style="fill:blue">recomendacion</text><path d="M440 40 C460 40 440 690 460 690" style="fill:transparent;stroke:black" /><rect x="526" y="670" width="137" height="40" style="fill:green;stroke:black;stroke-width:1" /><text x="536" y="680" font-size="8" style="fill:white">8</text><rect x="460" y="720" width="200" height="40" style="fill:white;stroke:black;stroke-width:1" /><text x="470" y="730" font-size="10" style="fill:blue">hitos</text><path d="M440 40 C460 40 440 740 460 740" style="fill:transparent;stroke:black" /><rect x="680" y="720" width="200" height="40" style="fill:white;stroke:black;stroke-width:1" /><text x="690" y="730" font-size="10" style="fill:blue">hito</text><path d="M660 740 C680 740 660 740 680 740" style="fill:transparent;stroke:black" /><rect x="900" y="720" width="200" height="40" style="fill:white;stroke:black;stroke-width:1" /><text x="910" y="730" font-size="10" style="fill:blue">nombreHito</text><path d="M880 740 C900 740 880 740 900 740" style="fill:transparent;stroke:black" /><rect x="966" y="720" width="137" height="40" style="fill:green;stroke:black;stroke-width:1" /><text x="976" y="730" font-size="8" style="fill:white">Llegar a mirador</text><rect x="900" y="770" width="200" height="40" style="fill:white;stroke:black;stroke-width:1" /><text x="910" y="780" font-size="10" style="fill:blue">descripcionHito</text><path d="M880 740 C900 740 880 790 900 790" style="fill:transparent;stroke:black" /><rect x="966" y="770" width="137" height="40" style="fill:green;stroke:black;stroke-width:1" /><text x="976" y="780" font-size="8" style="fill:white">Llegar al mirador de las escaleras</text><rect x="900" y="820" width="200" height="40" style="fill:white;stroke:black;stroke-width:1" /><text x="910" y="830" font-size="10" style="fill:blue">coordenadasHito</text><path d="M880 740 C900 740 880 840 900 840" style="fill:transparent;stroke:black" /><rect x="966" y="820" width="137" height="40" style="fill:green;stroke:black;stroke-width:1" /><text x="976" y="830" font-size="8" style="fill:white">38.19203145233, 128.47285727554274, 654</text><rect x="900" y="870" width="200" height="40" style="fill:white;stroke:black;stroke-width:1" /><text x="910" y="880" font-size="10" style="fill:blue">distanciaDesdeAnterior</text><path d="M880 740 C900 740 880 890 900 890" style="fill:transparent;stroke:black" /><rect x="966" y="870" width="137" height="40" style="fill:green;stroke:black;stroke-width:1" /><text x="976" y="880" font-size="8" style="fill:white">0</text><rect x="900" y="920" width="200" height="40" style="fill:white;stroke:black;stroke-width:1" /><text x="910" y="930" font-size="10" style="fill:blue">galeriaFotografica</text><path d="M880 740 C900 740 880 940 900 940" style="fill:transparent;stroke:black" /><rect x="966" y="920" width="137" height="40" style="fill:green;stroke:black;stroke-width:1" /><text x="976" y="930" font-size="8" style="fill:white">mirador.jpg</text><rect x="680" y="1020" width="200" height="40" style="fill:white;stroke:black;stroke-width:1" /><text x="690" y="1030" font-size="10" style="fill:blue">hito</text><path d="M660 740 C680 740 660 1040 680 1040" style="fill:transparent;stroke:black" /><rect x="900" y="1020" width="200" height="40" style="fill:white;stroke:black;stroke-width:1" /><text x="910" y="1030" font-size="10" style="fill:blue">nombreHito</text><path d="M880 1040 C900 1040 880 1040 900 1040" style="fill:transparent;stroke:black" /><rect x="966" y="1020" width="137" height="40" style="fill:green;stroke:black;stroke-width:1" /><text x="976" y="1030" font-size="8" style="fill:white">Llegar a la cima</text><rect x="900" y="1070" width="200" height="40" style="fill:white;stroke:black;stroke-width:1" /><text x="910" y="1080" font-size="10" style="fill:blue">descripcionHito</text><path d="M880 1040 C900 1040 880 1090 900 1090" style="fill:transparent;stroke:black" /><rect x="966" y="1070" width="137" height="40" style="fill:green;stroke:black;stroke-width:1" /><text x="976" y="1080" font-size="8" style="fill:white">llegar a la cima de la roca</text><rect x="900" y="1120" width="200" height="40" style="fill:white;stroke:black;stroke-width:1" /><text x="910" y="1130" font-size="10" style="fill:blue">coordenadasHito</text><path d="M880 1040 C900 1040 880 1140 900 1140" style="fill:transparent;stroke:black" /><rect x="966" y="1120" width="137" height="40" style="fill:green;stroke:black;stroke-width:1" /><text x="976" y="1130" font-size="8" style="fill:white">38.19327621589622, 128.47579029604157, 873</text><rect x="900" y="1170" width="200" height="40" style="fill:white;stroke:black;stroke-width:1" /><text x="910" y="1180" font-size="10" style="fill:blue">distanciaDesdeAnterior</text><path d="M880 1040 C900 1040 880 1190 900 1190" style="fill:transparent;stroke:black" /><rect x="966" y="1170" width="137" height="40" style="fill:green;stroke:black;stroke-width:1" /><text x="976" y="1180" font-size="8" style="fill:white">1,5</text><rect x="900" y="1220" width="200" height="40" style="fill:white;stroke:black;stroke-width:1" /><text x="910" y="1230" font-size="10" style="fill:blue">galeriaFotografica</text><path d="M880 1040 C900 1040 880 1240 900 1240" style="fill:transparent;stroke:black" /><rect x="966" y="1220" width="137" height="40" style="fill:green;stroke:black;stroke-width:1" /><text x="976" y="1230" font-size="8" style="fill:white">rocaUlsanbawi.jpg</text><rect x="680" y="1320" width="200" height="40" style="fill:white;stroke:black;stroke-width:1" /><text x="690" y="1330" font-size="10" style="fill:blue">hito</text><path d="M660 740 C680 740 660 1340 680 1340" style="fill:transparent;stroke:black" /><rect x="900" y="1320" width="200" height="40" style="fill:white;stroke:black;stroke-width:1" /><text x="910" y="1330" font-size="10" style="fill:blue">nombreHito</text><path d="M880 1340 C900 1340 880 1340 900 1340" style="fill:transparent;stroke:black" /><rect x="966" y="1320" width="137" height="40" style="fill:green;stroke:black;stroke-width:1" /><text x="976" y="1330" font-size="8" style="fill:white">Heundeul Bawi Rock</text><rect x="900" y="1370" width="200" height="40" style="fill:white;stroke:black;stroke-width:1" /><text x="910" y="1380" font-size="10" style="fill:blue">descripcionHito</text><path d="M880 1340 C900 1340 880 1390 900 1390" style="fill:transparent;stroke:black" /><rect x="966" y="1370" width="137" height="40" style="fill:green;stroke:black;stroke-width:1" /><text x="976" y="1380" font-size="8" style="fill:white">Templo de la zona</text><rect x="900" y="1420" width="200" height="40" style="fill:white;stroke:black;stroke-width:1" /><text x="910" y="1430" font-size="10" style="fill:blue">coordenadasHito</text><path d="M880 1340 C900 1340 880 1440 900 1440" style="fill:transparent;stroke:black" /><rect x="966" y="1420" width="137" height="40" style="fill:green;stroke:black;stroke-width:1" /><text x="976" y="1430" font-size="8" style="fill:white">38.19022825860469, 128.4750284241587, 620</text><rect x="900" y="1470" width="200" height="40" style="fill:white;stroke:black;stroke-width:1" /><text x="910" y="1480" font-size="10" style="fill:blue">distanciaDesdeAnterior</text><path d="M880 1340 C900 1340 880 1490 900 1490" style="fill:transparent;stroke:black" /><rect x="966" y="1470" width="137" height="40" style="fill:green;stroke:black;stroke-width:1" /><text x="976" y="1480" font-size="8" style="fill:white">3</text><rect x="900" y="1520" width="200" height="40" style="fill:white;stroke:black;stroke-width:1" /><text x="910" y="1530" font-size="10" style="fill:blue">galeriaFotografica</text><path d="M880 1340 C900 1340 880 1540 900 1540" style="fill:transparent;stroke:black" /><rect x="966" y="1520" width="137" height="40" style="fill:green;stroke:black;stroke-width:1" /><text x="976" y="1530" font-size="8" style="fill:white">templo.jpg</text><rect x="240" y="1720" width="200" height="40" style="fill:white;stroke:black;stroke-width:1" /><text x="250" y="1730" font-size="10" style="fill:blue">ruta</text><path d="M220 40 C240 40 220 1740 240 1740" style="fill:transparent;stroke:black" /><rect x="460" y="1720" width="200" height="40" style="fill:white;stroke:black;stroke-width:1" /><text x="470" y="1730" font-size="10" style="fill:blue">nombre</text><path d="M440 1740 C460 1740 440 1740 460 1740" style="fill:transparent;stroke:black" /><rect x="526" y="1720" width="137" height="40" style="fill:green;stroke:black;stroke-width:1" /><text x="536" y="1730" font-size="8" style="fill:white">Ulsanbawi Rock</text><rect x="460" y="1770" width="200" height="40" style="fill:white;stroke:black;stroke-width:1" /><text x="470" y="1780" font-size="10" style="fill:blue">tipo</text><path d="M440 1740 C460 1740 440 1790 460 1790" style="fill:transparent;stroke:black" /><rect x="526" y="1770" width="137" height="40" style="fill:green;stroke:black;stroke-width:1" /><text x="536" y="1780" font-size="8" style="fill:white">Senderismo</text><rect x="460" y="1820" width="200" height="40" style="fill:white;stroke:black;stroke-width:1" /><text x="470" y="1830" font-size="10" style="fill:blue">medioTransporte</text><path d="M440 1740 C460 1740 440 1840 460 1840" style="fill:transparent;stroke:black" /><rect x="526" y="1820" width="137" height="40" style="fill:green;stroke:black;stroke-width:1" /><text x="536" y="1830" font-size="8" style="fill:white">A pie</text><rect x="460" y="1870" width="200" height="40" style="fill:white;stroke:black;stroke-width:1" /><text x="470" y="1880" font-size="10" style="fill:blue">duracion</text><path d="M440 1740 C460 1740 440 1890 460 1890" style="fill:transparent;stroke:black" /><rect x="526" y="1870" width="137" height="40" style="fill:green;stroke:black;stroke-width:1" /><text x="536" y="1880" font-size="8" style="fill:white">3,5 horas</text><rect x="460" y="1920" width="200" height="40" style="fill:white;stroke:black;stroke-width:1" /><text x="470" y="1930" font-size="10" style="fill:blue">agencia</text><path d="M440 1740 C460 1740 440 1940 460 1940" style="fill:transparent;stroke:black" /><rect x="526" y="1920" width="137" height="40" style="fill:green;stroke:black;stroke-width:1" /><text x="536" y="1930" font-size="8" style="fill:white">Sin agencia</text><rect x="460" y="1970" width="200" height="40" style="fill:white;stroke:black;stroke-width:1" /><text x="470" y="1980" font-size="10" style="fill:blue">descripcion</text><path d="M440 1740 C460 1740 440 1990 460 1990" style="fill:transparent;stroke:black" /><rect x="526" y="1970" width="137" height="40" style="fill:green;stroke:black;stroke-width:1" /><text x="536" y="1980" font-size="8" style="fill:white">Caminata de 3,8km, unas tres horas y media ida y vuelta, con un ascenso a la roca Ulsanbawi para finalizar, desde la que vamos a tener unas vistas increíbles.</text><rect x="460" y="2020" width="200" height="40" style="fill:white;stroke:black;stroke-width:1" /><text x="470" y="2030" font-size="10" style="fill:blue">personasAdecuadas</text><path d="M440 1740 C460 1740 440 2040 460 2040" style="fill:transparent;stroke:black" /><rect x="526" y="2020" width="137" height="40" style="fill:green;stroke:black;stroke-width:1" /><text x="536" y="2030" font-size="8" style="fill:white">Personas en 
            buena forma física</text><rect x="460" y="2070" width="200" height="40" style="fill:white;stroke:black;stroke-width:1" /><text x="470" y="2080" font-size="10" style="fill:blue">lugarInicio</text><path d="M440 1740 C460 1740 440 2090 460 2090" style="fill:transparent;stroke:black" /><rect x="526" y="2070" width="137" height="40" style="fill:green;stroke:black;stroke-width:1" /><text x="536" y="2080" font-size="8" style="fill:white">Seoraksan National Park</text><rect x="460" y="2120" width="200" height="40" style="fill:white;stroke:black;stroke-width:1" /><text x="470" y="2130" font-size="10" style="fill:blue">direccionInicio</text><path d="M440 1740 C460 1740 440 2140 460 2140" style="fill:transparent;stroke:black" /><rect x="526" y="2120" width="137" height="40" style="fill:green;stroke:black;stroke-width:1" /><text x="536" y="2130" font-size="8" style="fill:white">Seorak-dong, Sokcho-si, Gangwon-do, Corea del Sur</text><rect x="460" y="2170" width="200" height="40" style="fill:white;stroke:black;stroke-width:1" /><text x="470" y="2180" font-size="10" style="fill:blue">coordenadas</text><path d="M440 1740 C460 1740 440 2190 460 2190" style="fill:transparent;stroke:black" /><rect x="526" y="2170" width="137" height="40" style="fill:green;stroke:black;stroke-width:1" /><text x="536" y="2180" font-size="8" style="fill:white">38.19327621589622, 128.47579029604157, 873</text><rect x="460" y="2220" width="200" height="40" style="fill:white;stroke:black;stroke-width:1" /><text x="470" y="2230" font-size="10" style="fill:blue">referencias</text><path d="M440 1740 C460 1740 440 2240 460 2240" style="fill:transparent;stroke:black" /><rect x="526" y="2220" width="137" height="40" style="fill:green;stroke:black;stroke-width:1" /><text x="536" y="2230" font-size="8" style="fill:white">https://www.tripadvisor.es/Attraction_Review-g317129-d3808309-Reviews-Ulsanbawi_Rock-Sokcho_Gangwon_do.html</text><rect x="460" y="2270" width="200" height="40" style="fill:white;stroke:black;stroke-width:1" /><text x="470" y="2280" font-size="10" style="fill:blue">referencias</text><path d="M440 1740 C460 1740 440 2290 460 2290" style="fill:transparent;stroke:black" /><rect x="526" y="2270" width="137" height="40" style="fill:green;stroke:black;stroke-width:1" /><text x="536" y="2280" font-size="8" style="fill:white">https://en.wikipedia.org/wiki/Ulsanbawi</text><rect x="460" y="2320" width="200" height="40" style="fill:white;stroke:black;stroke-width:1" /><text x="470" y="2330" font-size="10" style="fill:blue">referencias</text><path d="M440 1740 C460 1740 440 2340 460 2340" style="fill:transparent;stroke:black" /><rect x="526" y="2320" width="137" height="40" style="fill:green;stroke:black;stroke-width:1" /><text x="536" y="2330" font-size="8" style="fill:white">https://es.wikiloc.com/rutas-senderismo/seoraksan-national-park-dir-ulsanbawi-rock-62983271</text><rect x="460" y="2370" width="200" height="40" style="fill:white;stroke:black;stroke-width:1" /><text x="470" y="2380" font-size="10" style="fill:blue">recomendacion</text><path d="M440 1740 C460 1740 440 2390 460 2390" style="fill:transparent;stroke:black" /><rect x="526" y="2370" width="137" height="40" style="fill:green;stroke:black;stroke-width:1" /><text x="536" y="2380" font-size="8" style="fill:white">8</text><rect x="460" y="2420" width="200" height="40" style="fill:white;stroke:black;stroke-width:1" /><text x="470" y="2430" font-size="10" style="fill:blue">hitos</text><path d="M440 1740 C460 1740 440 2440 460 2440" style="fill:transparent;stroke:black" /><rect x="680" y="2420" width="200" height="40" style="fill:white;stroke:black;stroke-width:1" /><text x="690" y="2430" font-size="10" style="fill:blue">hito</text><path d="M660 2440 C680 2440 660 2440 680 2440" style="fill:transparent;stroke:black" /><rect x="900" y="2420" width="200" height="40" style="fill:white;stroke:black;stroke-width:1" /><text x="910" y="2430" font-size="10" style="fill:blue">nombreHito</text><path d="M880 2440 C900 2440 880 2440 900 2440" style="fill:transparent;stroke:black" /><rect x="966" y="2420" width="137" height="40" style="fill:green;stroke:black;stroke-width:1" /><text x="976" y="2430" font-size="8" style="fill:white">Llegar a mirador</text><rect x="900" y="2470" width="200" height="40" style="fill:white;stroke:black;stroke-width:1" /><text x="910" y="2480" font-size="10" style="fill:blue">descripcionHito</text><path d="M880 2440 C900 2440 880 2490 900 2490" style="fill:transparent;stroke:black" /><rect x="966" y="2470" width="137" height="40" style="fill:green;stroke:black;stroke-width:1" /><text x="976" y="2480" font-size="8" style="fill:white">Llegar al mirador de las escaleras</text><rect x="900" y="2520" width="200" height="40" style="fill:white;stroke:black;stroke-width:1" /><text x="910" y="2530" font-size="10" style="fill:blue">coordenadasHito</text><path d="M880 2440 C900 2440 880 2540 900 2540" style="fill:transparent;stroke:black" /><rect x="966" y="2520" width="137" height="40" style="fill:green;stroke:black;stroke-width:1" /><text x="976" y="2530" font-size="8" style="fill:white">38.19203145233, 128.47285727554274, 654</text><rect x="900" y="2570" width="200" height="40" style="fill:white;stroke:black;stroke-width:1" /><text x="910" y="2580" font-size="10" style="fill:blue">distanciaDesdeAnterior</text><path d="M880 2440 C900 2440 880 2590 900 2590" style="fill:transparent;stroke:black" /><rect x="966" y="2570" width="137" height="40" style="fill:green;stroke:black;stroke-width:1" /><text x="976" y="2580" font-size="8" style="fill:white">0</text><rect x="900" y="2620" width="200" height="40" style="fill:white;stroke:black;stroke-width:1" /><text x="910" y="2630" font-size="10" style="fill:blue">galeriaFotografica</text><path d="M880 2440 C900 2440 880 2640 900 2640" style="fill:transparent;stroke:black" /><rect x="966" y="2620" width="137" height="40" style="fill:green;stroke:black;stroke-width:1" /><text x="976" y="2630" font-size="8" style="fill:white">mirador.jpg</text><rect x="680" y="2720" width="200" height="40" style="fill:white;stroke:black;stroke-width:1" /><text x="690" y="2730" font-size="10" style="fill:blue">hito</text><path d="M660 2440 C680 2440 660 2740 680 2740" style="fill:transparent;stroke:black" /><rect x="900" y="2720" width="200" height="40" style="fill:white;stroke:black;stroke-width:1" /><text x="910" y="2730" font-size="10" style="fill:blue">nombreHito</text><path d="M880 2740 C900 2740 880 2740 900 2740" style="fill:transparent;stroke:black" /><rect x="966" y="2720" width="137" height="40" style="fill:green;stroke:black;stroke-width:1" /><text x="976" y="2730" font-size="8" style="fill:white">Llegar a la cima</text><rect x="900" y="2770" width="200" height="40" style="fill:white;stroke:black;stroke-width:1" /><text x="910" y="2780" font-size="10" style="fill:blue">descripcionHito</text><path d="M880 2740 C900 2740 880 2790 900 2790" style="fill:transparent;stroke:black" /><rect x="966" y="2770" width="137" height="40" style="fill:green;stroke:black;stroke-width:1" /><text x="976" y="2780" font-size="8" style="fill:white">llegar a la cima de la roca</text><rect x="900" y="2820" width="200" height="40" style="fill:white;stroke:black;stroke-width:1" /><text x="910" y="2830" font-size="10" style="fill:blue">coordenadasHito</text><path d="M880 2740 C900 2740 880 2840 900 2840" style="fill:transparent;stroke:black" /><rect x="966" y="2820" width="137" height="40" style="fill:green;stroke:black;stroke-width:1" /><text x="976" y="2830" font-size="8" style="fill:white">38.19327621589622, 128.47579029604157, 873</text><rect x="900" y="2870" width="200" height="40" style="fill:white;stroke:black;stroke-width:1" /><text x="910" y="2880" font-size="10" style="fill:blue">distanciaDesdeAnterior</text><path d="M880 2740 C900 2740 880 2890 900 2890" style="fill:transparent;stroke:black" /><rect x="966" y="2870" width="137" height="40" style="fill:green;stroke:black;stroke-width:1" /><text x="976" y="2880" font-size="8" style="fill:white">1,5</text><rect x="900" y="2920" width="200" height="40" style="fill:white;stroke:black;stroke-width:1" /><text x="910" y="2930" font-size="10" style="fill:blue">galeriaFotografica</text><path d="M880 2740 C900 2740 880 2940 900 2940" style="fill:transparent;stroke:black" /><rect x="966" y="2920" width="137" height="40" style="fill:green;stroke:black;stroke-width:1" /><text x="976" y="2930" font-size="8" style="fill:white">rocaUlsanbawi.jpg</text><rect x="680" y="3020" width="200" height="40" style="fill:white;stroke:black;stroke-width:1" /><text x="690" y="3030" font-size="10" style="fill:blue">hito</text><path d="M660 2440 C680 2440 660 3040 680 3040" style="fill:transparent;stroke:black" /><rect x="900" y="3020" width="200" height="40" style="fill:white;stroke:black;stroke-width:1" /><text x="910" y="3030" font-size="10" style="fill:blue">nombreHito</text><path d="M880 3040 C900 3040 880 3040 900 3040" style="fill:transparent;stroke:black" /><rect x="966" y="3020" width="137" height="40" style="fill:green;stroke:black;stroke-width:1" /><text x="976" y="3030" font-size="8" style="fill:white">Heundeul Bawi Rock</text><rect x="900" y="3070" width="200" height="40" style="fill:white;stroke:black;stroke-width:1" /><text x="910" y="3080" font-size="10" style="fill:blue">descripcionHito</text><path d="M880 3040 C900 3040 880 3090 900 3090" style="fill:transparent;stroke:black" /><rect x="966" y="3070" width="137" height="40" style="fill:green;stroke:black;stroke-width:1" /><text x="976" y="3080" font-size="8" style="fill:white">Templo de la zona</text><rect x="900" y="3120" width="200" height="40" style="fill:white;stroke:black;stroke-width:1" /><text x="910" y="3130" font-size="10" style="fill:blue">coordenadasHito</text><path d="M880 3040 C900 3040 880 3140 900 3140" style="fill:transparent;stroke:black" /><rect x="966" y="3120" width="137" height="40" style="fill:green;stroke:black;stroke-width:1" /><text x="976" y="3130" font-size="8" style="fill:white">38.19022825860469, 128.4750284241587, 620</text><rect x="900" y="3170" width="200" height="40" style="fill:white;stroke:black;stroke-width:1" /><text x="910" y="3180" font-size="10" style="fill:blue">distanciaDesdeAnterior</text><path d="M880 3040 C900 3040 880 3190 900 3190" style="fill:transparent;stroke:black" /><rect x="966" y="3170" width="137" height="40" style="fill:green;stroke:black;stroke-width:1" /><text x="976" y="3180" font-size="8" style="fill:white">3</text><rect x="900" y="3220" width="200" height="40" style="fill:white;stroke:black;stroke-width:1" /><text x="910" y="3230" font-size="10" style="fill:blue">galeriaFotografica</text><path d="M880 3040 C900 3040 880 3240 900 3240" style="fill:transparent;stroke:black" /><rect x="966" y="3220" width="137" height="40" style="fill:green;stroke:black;stroke-width:1" /><text x="976" y="3230" font-size="8" style="fill:white">templo.jpg</text><rect x="240" y="3420" width="200" height="40" style="fill:white;stroke:black;stroke-width:1" /><text x="250" y="3430" font-size="10" style="fill:blue">ruta</text><path d="M220 40 C240 40 220 3440 240 3440" style="fill:transparent;stroke:black" /><rect x="460" y="3420" width="200" height="40" style="fill:white;stroke:black;stroke-width:1" /><text x="470" y="3430" font-size="10" style="fill:blue">nombre</text><path d="M440 3440 C460 3440 440 3440 460 3440" style="fill:transparent;stroke:black" /><rect x="526" y="3420" width="137" height="40" style="fill:green;stroke:black;stroke-width:1" /><text x="536" y="3430" font-size="8" style="fill:white">Ulsanbawi Rock</text><rect x="460" y="3470" width="200" height="40" style="fill:white;stroke:black;stroke-width:1" /><text x="470" y="3480" font-size="10" style="fill:blue">tipo</text><path d="M440 3440 C460 3440 440 3490 460 3490" style="fill:transparent;stroke:black" /><rect x="526" y="3470" width="137" height="40" style="fill:green;stroke:black;stroke-width:1" /><text x="536" y="3480" font-size="8" style="fill:white">Senderismo</text><rect x="460" y="3520" width="200" height="40" style="fill:white;stroke:black;stroke-width:1" /><text x="470" y="3530" font-size="10" style="fill:blue">medioTransporte</text><path d="M440 3440 C460 3440 440 3540 460 3540" style="fill:transparent;stroke:black" /><rect x="526" y="3520" width="137" height="40" style="fill:green;stroke:black;stroke-width:1" /><text x="536" y="3530" font-size="8" style="fill:white">A pie</text><rect x="460" y="3570" width="200" height="40" style="fill:white;stroke:black;stroke-width:1" /><text x="470" y="3580" font-size="10" style="fill:blue">duracion</text><path d="M440 3440 C460 3440 440 3590 460 3590" style="fill:transparent;stroke:black" /><rect x="526" y="3570" width="137" height="40" style="fill:green;stroke:black;stroke-width:1" /><text x="536" y="3580" font-size="8" style="fill:white">3,5 horas</text><rect x="460" y="3620" width="200" height="40" style="fill:white;stroke:black;stroke-width:1" /><text x="470" y="3630" font-size="10" style="fill:blue">agencia</text><path d="M440 3440 C460 3440 440 3640 460 3640" style="fill:transparent;stroke:black" /><rect x="526" y="3620" width="137" height="40" style="fill:green;stroke:black;stroke-width:1" /><text x="536" y="3630" font-size="8" style="fill:white">Sin agencia</text><rect x="460" y="3670" width="200" height="40" style="fill:white;stroke:black;stroke-width:1" /><text x="470" y="3680" font-size="10" style="fill:blue">descripcion</text><path d="M440 3440 C460 3440 440 3690 460 3690" style="fill:transparent;stroke:black" /><rect x="526" y="3670" width="137" height="40" style="fill:green;stroke:black;stroke-width:1" /><text x="536" y="3680" font-size="8" style="fill:white">Caminata de 3,8km, unas tres horas y media ida y vuelta, con un ascenso a la roca Ulsanbawi para finalizar, desde la que vamos a tener unas vistas increíbles.</text><rect x="460" y="3720" width="200" height="40" style="fill:white;stroke:black;stroke-width:1" /><text x="470" y="3730" font-size="10" style="fill:blue">personasAdecuadas</text><path d="M440 3440 C460 3440 440 3740 460 3740" style="fill:transparent;stroke:black" /><rect x="526" y="3720" width="137" height="40" style="fill:green;stroke:black;stroke-width:1" /><text x="536" y="3730" font-size="8" style="fill:white">Personas en 
            buena forma física</text><rect x="460" y="3770" width="200" height="40" style="fill:white;stroke:black;stroke-width:1" /><text x="470" y="3780" font-size="10" style="fill:blue">lugarInicio</text><path d="M440 3440 C460 3440 440 3790 460 3790" style="fill:transparent;stroke:black" /><rect x="526" y="3770" width="137" height="40" style="fill:green;stroke:black;stroke-width:1" /><text x="536" y="3780" font-size="8" style="fill:white">Seoraksan National Park</text><rect x="460" y="3820" width="200" height="40" style="fill:white;stroke:black;stroke-width:1" /><text x="470" y="3830" font-size="10" style="fill:blue">direccionInicio</text><path d="M440 3440 C460 3440 440 3840 460 3840" style="fill:transparent;stroke:black" /><rect x="526" y="3820" width="137" height="40" style="fill:green;stroke:black;stroke-width:1" /><text x="536" y="3830" font-size="8" style="fill:white">Seorak-dong, Sokcho-si, Gangwon-do, Corea del Sur</text><rect x="460" y="3870" width="200" height="40" style="fill:white;stroke:black;stroke-width:1" /><text x="470" y="3880" font-size="10" style="fill:blue">coordenadas</text><path d="M440 3440 C460 3440 440 3890 460 3890" style="fill:transparent;stroke:black" /><rect x="526" y="3870" width="137" height="40" style="fill:green;stroke:black;stroke-width:1" /><text x="536" y="3880" font-size="8" style="fill:white">38.19327621589622, 128.47579029604157, 873</text><rect x="460" y="3920" width="200" height="40" style="fill:white;stroke:black;stroke-width:1" /><text x="470" y="3930" font-size="10" style="fill:blue">referencias</text><path d="M440 3440 C460 3440 440 3940 460 3940" style="fill:transparent;stroke:black" /><rect x="526" y="3920" width="137" height="40" style="fill:green;stroke:black;stroke-width:1" /><text x="536" y="3930" font-size="8" style="fill:white">https://www.tripadvisor.es/Attraction_Review-g317129-d3808309-Reviews-Ulsanbawi_Rock-Sokcho_Gangwon_do.html</text><rect x="460" y="3970" width="200" height="40" style="fill:white;stroke:black;stroke-width:1" /><text x="470" y="3980" font-size="10" style="fill:blue">referencias</text><path d="M440 3440 C460 3440 440 3990 460 3990" style="fill:transparent;stroke:black" /><rect x="526" y="3970" width="137" height="40" style="fill:green;stroke:black;stroke-width:1" /><text x="536" y="3980" font-size="8" style="fill:white">https://en.wikipedia.org/wiki/Ulsanbawi</text><rect x="460" y="4020" width="200" height="40" style="fill:white;stroke:black;stroke-width:1" /><text x="470" y="4030" font-size="10" style="fill:blue">referencias</text><path d="M440 3440 C460 3440 440 4040 460 4040" style="fill:transparent;stroke:black" /><rect x="526" y="4020" width="137" height="40" style="fill:green;stroke:black;stroke-width:1" /><text x="536" y="4030" font-size="8" style="fill:white">https://es.wikiloc.com/rutas-senderismo/seoraksan-national-park-dir-ulsanbawi-rock-62983271</text><rect x="460" y="4070" width="200" height="40" style="fill:white;stroke:black;stroke-width:1" /><text x="470" y="4080" font-size="10" style="fill:blue">recomendacion</text><path d="M440 3440 C460 3440 440 4090 460 4090" style="fill:transparent;stroke:black" /><rect x="526" y="4070" width="137" height="40" style="fill:green;stroke:black;stroke-width:1" /><text x="536" y="4080" font-size="8" style="fill:white">8</text><rect x="460" y="4120" width="200" height="40" style="fill:white;stroke:black;stroke-width:1" /><text x="470" y="4130" font-size="10" style="fill:blue">hitos</text><path d="M440 3440 C460 3440 440 4140 460 4140" style="fill:transparent;stroke:black" /><rect x="680" y="4120" width="200" height="40" style="fill:white;stroke:black;stroke-width:1" /><text x="690" y="4130" font-size="10" style="fill:blue">hito</text><path d="M660 4140 C680 4140 660 4140 680 4140" style="fill:transparent;stroke:black" /><rect x="900" y="4120" width="200" height="40" style="fill:white;stroke:black;stroke-width:1" /><text x="910" y="4130" font-size="10" style="fill:blue">nombreHito</text><path d="M880 4140 C900 4140 880 4140 900 4140" style="fill:transparent;stroke:black" /><rect x="966" y="4120" width="137" height="40" style="fill:green;stroke:black;stroke-width:1" /><text x="976" y="4130" font-size="8" style="fill:white">Llegar a mirador</text><rect x="900" y="4170" width="200" height="40" style="fill:white;stroke:black;stroke-width:1" /><text x="910" y="4180" font-size="10" style="fill:blue">descripcionHito</text><path d="M880 4140 C900 4140 880 4190 900 4190" style="fill:transparent;stroke:black" /><rect x="966" y="4170" width="137" height="40" style="fill:green;stroke:black;stroke-width:1" /><text x="976" y="4180" font-size="8" style="fill:white">Llegar al mirador de las escaleras</text><rect x="900" y="4220" width="200" height="40" style="fill:white;stroke:black;stroke-width:1" /><text x="910" y="4230" font-size="10" style="fill:blue">coordenadasHito</text><path d="M880 4140 C900 4140 880 4240 900 4240" style="fill:transparent;stroke:black" /><rect x="966" y="4220" width="137" height="40" style="fill:green;stroke:black;stroke-width:1" /><text x="976" y="4230" font-size="8" style="fill:white">38.19203145233, 128.47285727554274, 654</text><rect x="900" y="4270" width="200" height="40" style="fill:white;stroke:black;stroke-width:1" /><text x="910" y="4280" font-size="10" style="fill:blue">distanciaDesdeAnterior</text><path d="M880 4140 C900 4140 880 4290 900 4290" style="fill:transparent;stroke:black" /><rect x="966" y="4270" width="137" height="40" style="fill:green;stroke:black;stroke-width:1" /><text x="976" y="4280" font-size="8" style="fill:white">0</text><rect x="900" y="4320" width="200" height="40" style="fill:white;stroke:black;stroke-width:1" /><text x="910" y="4330" font-size="10" style="fill:blue">galeriaFotografica</text><path d="M880 4140 C900 4140 880 4340 900 4340" style="fill:transparent;stroke:black" /><rect x="966" y="4320" width="137" height="40" style="fill:green;stroke:black;stroke-width:1" /><text x="976" y="4330" font-size="8" style="fill:white">mirador.jpg</text><rect x="680" y="4420" width="200" height="40" style="fill:white;stroke:black;stroke-width:1" /><text x="690" y="4430" font-size="10" style="fill:blue">hito</text><path d="M660 4140 C680 4140 660 4440 680 4440" style="fill:transparent;stroke:black" /><rect x="900" y="4420" width="200" height="40" style="fill:white;stroke:black;stroke-width:1" /><text x="910" y="4430" font-size="10" style="fill:blue">nombreHito</text><path d="M880 4440 C900 4440 880 4440 900 4440" style="fill:transparent;stroke:black" /><rect x="966" y="4420" width="137" height="40" style="fill:green;stroke:black;stroke-width:1" /><text x="976" y="4430" font-size="8" style="fill:white">Llegar a la cima</text><rect x="900" y="4470" width="200" height="40" style="fill:white;stroke:black;stroke-width:1" /><text x="910" y="4480" font-size="10" style="fill:blue">descripcionHito</text><path d="M880 4440 C900 4440 880 4490 900 4490" style="fill:transparent;stroke:black" /><rect x="966" y="4470" width="137" height="40" style="fill:green;stroke:black;stroke-width:1" /><text x="976" y="4480" font-size="8" style="fill:white">llegar a la cima de la roca</text><rect x="900" y="4520" width="200" height="40" style="fill:white;stroke:black;stroke-width:1" /><text x="910" y="4530" font-size="10" style="fill:blue">coordenadasHito</text><path d="M880 4440 C900 4440 880 4540 900 4540" style="fill:transparent;stroke:black" /><rect x="966" y="4520" width="137" height="40" style="fill:green;stroke:black;stroke-width:1" /><text x="976" y="4530" font-size="8" style="fill:white">38.19327621589622, 128.47579029604157, 873</text><rect x="900" y="4570" width="200" height="40" style="fill:white;stroke:black;stroke-width:1" /><text x="910" y="4580" font-size="10" style="fill:blue">distanciaDesdeAnterior</text><path d="M880 4440 C900 4440 880 4590 900 4590" style="fill:transparent;stroke:black" /><rect x="966" y="4570" width="137" height="40" style="fill:green;stroke:black;stroke-width:1" /><text x="976" y="4580" font-size="8" style="fill:white">1,5</text><rect x="900" y="4620" width="200" height="40" style="fill:white;stroke:black;stroke-width:1" /><text x="910" y="4630" font-size="10" style="fill:blue">galeriaFotografica</text><path d="M880 4440 C900 4440 880 4640 900 4640" style="fill:transparent;stroke:black" /><rect x="966" y="4620" width="137" height="40" style="fill:green;stroke:black;stroke-width:1" /><text x="976" y="4630" font-size="8" style="fill:white">rocaUlsanbawi.jpg</text><rect x="680" y="4720" width="200" height="40" style="fill:white;stroke:black;stroke-width:1" /><text x="690" y="4730" font-size="10" style="fill:blue">hito</text><path d="M660 4140 C680 4140 660 4740 680 4740" style="fill:transparent;stroke:black" /><rect x="900" y="4720" width="200" height="40" style="fill:white;stroke:black;stroke-width:1" /><text x="910" y="4730" font-size="10" style="fill:blue">nombreHito</text><path d="M880 4740 C900 4740 880 4740 900 4740" style="fill:transparent;stroke:black" /><rect x="966" y="4720" width="137" height="40" style="fill:green;stroke:black;stroke-width:1" /><text x="976" y="4730" font-size="8" style="fill:white">Heundeul Bawi Rock</text><rect x="900" y="4770" width="200" height="40" style="fill:white;stroke:black;stroke-width:1" /><text x="910" y="4780" font-size="10" style="fill:blue">descripcionHito</text><path d="M880 4740 C900 4740 880 4790 900 4790" style="fill:transparent;stroke:black" /><rect x="966" y="4770" width="137" height="40" style="fill:green;stroke:black;stroke-width:1" /><text x="976" y="4780" font-size="8" style="fill:white">Templo de la zona</text><rect x="900" y="4820" width="200" height="40" style="fill:white;stroke:black;stroke-width:1" /><text x="910" y="4830" font-size="10" style="fill:blue">coordenadasHito</text><path d="M880 4740 C900 4740 880 4840 900 4840" style="fill:transparent;stroke:black" /><rect x="966" y="4820" width="137" height="40" style="fill:green;stroke:black;stroke-width:1" /><text x="976" y="4830" font-size="8" style="fill:white">38.19022825860469, 128.4750284241587, 620</text><rect x="900" y="4870" width="200" height="40" style="fill:white;stroke:black;stroke-width:1" /><text x="910" y="4880" font-size="10" style="fill:blue">distanciaDesdeAnterior</text><path d="M880 4740 C900 4740 880 4890 900 4890" style="fill:transparent;stroke:black" /><rect x="966" y="4870" width="137" height="40" style="fill:green;stroke:black;stroke-width:1" /><text x="976" y="4880" font-size="8" style="fill:white">3</text><rect x="900" y="4920" width="200" height="40" style="fill:white;stroke:black;stroke-width:1" /><text x="910" y="4930" font-size="10" style="fill:blue">galeriaFotografica</text><path d="M880 4740 C900 4740 880 4940 900 4940" style="fill:transparent;stroke:black" /><rect x="966" y="4920" width="137" height="40" style="fill:green;stroke:black;stroke-width:1" /><text x="976" y="4930" font-size="8" style="fill:white">templo.jpg</text></svg>